[
    {
        "pts_time": "0.000000",
        "duration_time": "0.016667"
    },
    {
        "pts_time": "0.016667",
        "duration_time": "0.016667"
    },
    {
        "pts_time": "0.033333",
        "duration_time": "0.016667"
    },
    {
        "pts_time": "0.050000",
        "duration_time": "0.016667"
    },
    {
        "pts_time": "0.066667",
        "duration_time": "0.016667"
    },
    {
        "pts_time": "0.083333",
        "duration_time": "0.016667"
    },
    {
        "pts_time": "0.100000",
        "duration_time": "0.016667"
    },
    {
        "pts_time": "0.116667",
        "duration_time": "0.016667"
    },
    {
        "pts_time": "0.133333",
        "duration_time": "0.016667"
    },
    {
        "pts_time": "0.150000",
        "duration_time": "0.016667"
    },
    {
        "pts_time": "0.166667",
        "duration_time": "0.016667"
    },
    {
        "pts_time": "0.183333",
        "duration_time": "0.016667"
    },
    {
        "pts_time": "0.200000",
        "duration_time": "0.016667"
    },
    {
        "pts_time": "0.216667",
        "duration_time": "0.016667"
    },
    {
        "pts_time": "0.233333",
        "duration_time": "0.016667"
    },
    {
        "pts_time": "0.250000",
        "duration_time": "0.016667"
    },
    {
        "pts_time": "0.266667",
        "duration_time": "0.016667"
    },
    {
        "pts_time": "0.283333",
        "duration_time": "0.016667"
    },
    {
        "pts_time": "0.300000",
        "duration_time": "0.016667"
    },
    {
        "pts_time": "0.316667",
        "duration_time": "0.016667"
    },
    {
        "pts_time": "0.333333",
        "duration_time": "0.016667"
    },
    {
        "pts_time": "0.350000",
        "duration_time": "0.016667"
    },
    {
        "pts_time": "0.366667",
        "duration_time": "0.016667"
    },
    {
        "pts_time": "0.383333",
        "duration_time": "0.016667"
    },
    {
        "pts_time": "0.400000",
        "duration_time": "0.016667"
    },
    {
        "pts_time": "0.416667",
        "duration_time": "0.016667"
    },
    {
        "pts_time": "0.433333",
        "duration_time": "0.016667"
    },
    {
        "pts_time": "0.450000",
        "duration_time": "0.016667"
    },
    {
        "pts_time": "0.466667",
        "duration_time": "0.016667"
    },
    {
        "pts_time": "0.483333",
        "duration_time": "0.016667"
    },
    {
        "pts_time": "0.500000",
        "duration_time": "0.016667"
    },
    {
        "pts_time": "0.516667",
        "duration_time": "0.016667"
    },
    {
        "pts_time": "0.533333",
        "duration_time": "0.016667"
    },
    {
        "pts_time": "0.550000",
        "duration_time": "0.016667"
    },
    {
        "pts_time": "0.566667",
        "duration_time": "0.016667"
    },
    {
        "pts_time": "0.583333",
        "duration_time": "0.016667"
    },
    {
        "pts_time": "0.600000",
        "duration_time": "0.016667"
    },
    {
        "pts_time": "0.616667",
        "duration_time": "0.016667"
    },
    {
        "pts_time": "0.633333",
        "duration_time": "0.016667"
    },
    {
        "pts_time": "0.650000",
        "duration_time": "0.016667"
    },
    {
        "pts_time": "0.666667",
        "duration_time": "0.016667"
    },
    {
        "pts_time": "0.683333",
        "duration_time": "0.016667"
    },
    {
        "pts_time": "0.700000",
        "duration_time": "0.016667"
    },
    {
        "pts_time": "0.716667",
        "duration_time": "0.016667"
    },
    {
        "pts_time": "0.733333",
        "duration_time": "0.016667"
    },
    {
        "pts_time": "0.750000",
        "duration_time": "0.016667"
    },
    {
        "pts_time": "0.766667",
        "duration_time": "0.016667"
    },
    {
        "pts_time": "0.783333",
        "duration_time": "0.016667"
    },
    {
        "pts_time": "0.800000",
        "duration_time": "0.016667"
    },
    {
        "pts_time": "0.816667",
        "duration_time": "0.016667"
    },
    {
        "pts_time": "0.833333",
        "duration_time": "0.016667"
    },
    {
        "pts_time": "0.850000",
        "duration_time": "0.016667"
    },
    {
        "pts_time": "0.866667",
        "duration_time": "0.016667"
    },
    {
        "pts_time": "0.883333",
        "duration_time": "0.016667"
    },
    {
        "pts_time": "0.900000",
        "duration_time": "0.016667"
    },
    {
        "pts_time": "0.916667",
        "duration_time": "0.016667"
    },
    {
        "pts_time": "0.933333",
        "duration_time": "0.016667"
    },
    {
        "pts_time": "0.950000",
        "duration_time": "0.016667"
    },
    {
        "pts_time": "0.966667",
        "duration_time": "0.016667"
    },
    {
        "pts_time": "0.983333",
        "duration_time": "0.016667"
    },
    {
        "pts_time": "1.000000",
        "duration_time": "0.016667"
    },
    {
        "pts_time": "1.016667",
        "duration_time": "0.016667"
    },
    {
        "pts_time": "1.033333",
        "duration_time": "0.016667"
    },
    {
        "pts_time": "1.050000",
        "duration_time": "0.016667"
    },
    {
        "pts_time": "1.066667",
        "duration_time": "0.016667"
    },
    {
        "pts_time": "1.083333",
        "duration_time": "0.016667"
    },
    {
        "pts_time": "1.100000",
        "duration_time": "0.016667"
    },
    {
        "pts_time": "1.116667",
        "duration_time": "0.016667"
    },
    {
        "pts_time": "1.133333",
        "duration_time": "0.016667"
    },
    {
        "pts_time": "1.150000",
        "duration_time": "0.016667"
    },
    {
        "pts_time": "1.166667",
        "duration_time": "0.016667"
    },
    {
        "pts_time": "1.183333",
        "duration_time": "0.016667"
    },
    {
        "pts_time": "1.200000",
        "duration_time": "0.016667"
    },
    {
        "pts_time": "1.216667",
        "duration_time": "0.016667"
    },
    {
        "pts_time": "1.233333",
        "duration_time": "0.016667"
    },
    {
        "pts_time": "1.250000",
        "duration_time": "0.016667"
    },
    {
        "pts_time": "1.266667",
        "duration_time": "0.016667"
    },
    {
        "pts_time": "1.283333",
        "duration_time": "0.016667"
    },
    {
        "pts_time": "1.300000",
        "duration_time": "0.016667"
    },
    {
        "pts_time": "1.316667",
        "duration_time": "0.016667"
    },
    {
        "pts_time": "1.333333",
        "duration_time": "0.016667"
    },
    {
        "pts_time": "1.350000",
        "duration_time": "0.016667"
    },
    {
        "pts_time": "1.366667",
        "duration_time": "0.016667"
    },
    {
        "pts_time": "1.383333",
        "duration_time": "0.016667"
    },
    {
        "pts_time": "1.400000",
        "duration_time": "0.016667"
    },
    {
        "pts_time": "1.416667",
        "duration_time": "0.016667"
    },
    {
        "pts_time": "1.433333",
        "duration_time": "0.016667"
    },
    {
        "pts_time": "1.450000",
        "duration_time": "0.016667"
    },
    {
        "pts_time": "1.466667",
        "duration_time": "0.016667"
    },
    {
        "pts_time": "1.483333",
        "duration_time": "0.016667"
    },
    {
        "pts_time": "1.500000",
        "duration_time": "0.016667"
    },
    {
        "pts_time": "1.516667",
        "duration_time": "0.016667"
    },
    {
        "pts_time": "1.533333",
        "duration_time": "0.016667"
    },
    {
        "pts_time": "1.550000",
        "duration_time": "0.016667"
    },
    {
        "pts_time": "1.566667",
        "duration_time": "0.016667"
    },
    {
        "pts_time": "1.583333",
        "duration_time": "0.016667"
    },
    {
        "pts_time": "1.600000",
        "duration_time": "0.016667"
    },
    {
        "pts_time": "1.616667",
        "duration_time": "0.016667"
    },
    {
        "pts_time": "1.633333",
        "duration_time": "0.016667"
    },
    {
        "pts_time": "1.650000",
        "duration_time": "0.016667"
    },
    {
        "pts_time": "1.666667",
        "duration_time": "0.016667"
    },
    {
        "pts_time": "1.683333",
        "duration_time": "0.016667"
    },
    {
        "pts_time": "1.700000",
        "duration_time": "0.016667"
    },
    {
        "pts_time": "1.716667",
        "duration_time": "0.016667"
    },
    {
        "pts_time": "1.733333",
        "duration_time": "0.016667"
    },
    {
        "pts_time": "1.750000",
        "duration_time": "0.016667"
    },
    {
        "pts_time": "1.766667",
        "duration_time": "0.016667"
    },
    {
        "pts_time": "1.783333",
        "duration_time": "0.016667"
    },
    {
        "pts_time": "1.800000",
        "duration_time": "0.016667"
    },
    {
        "pts_time": "1.816667",
        "duration_time": "0.016667"
    },
    {
        "pts_time": "1.833333",
        "duration_time": "0.016667"
    },
    {
        "pts_time": "1.850000",
        "duration_time": "0.016667"
    },
    {
        "pts_time": "1.866667",
        "duration_time": "0.016667"
    },
    {
        "pts_time": "1.883333",
        "duration_time": "0.016667"
    },
    {
        "pts_time": "1.900000",
        "duration_time": "0.016667"
    },
    {
        "pts_time": "1.916667",
        "duration_time": "0.016667"
    },
    {
        "pts_time": "1.933333",
        "duration_time": "0.016667"
    },
    {
        "pts_time": "1.950000",
        "duration_time": "0.016667"
    },
    {
        "pts_time": "1.966667",
        "duration_time": "0.016667"
    },
    {
        "pts_time": "1.983333",
        "duration_time": "0.016667"
    },
    {
        "pts_time": "2.000000",
        "duration_time": "0.016667"
    },
    {
        "pts_time": "2.016667",
        "duration_time": "0.016667"
    },
    {
        "pts_time": "2.033333",
        "duration_time": "0.016667"
    },
    {
        "pts_time": "2.050000",
        "duration_time": "0.016667"
    },
    {
        "pts_time": "2.066667",
        "duration_time": "0.016667"
    },
    {
        "pts_time": "2.083333",
        "duration_time": "0.016667"
    },
    {
        "pts_time": "2.100000",
        "duration_time": "0.016667"
    },
    {
        "pts_time": "2.116667",
        "duration_time": "0.016667"
    },
    {
        "pts_time": "2.133333",
        "duration_time": "0.016667"
    },
    {
        "pts_time": "2.150000",
        "duration_time": "0.016667"
    },
    {
        "pts_time": "2.166667",
        "duration_time": "0.016667"
    },
    {
        "pts_time": "2.183333",
        "duration_time": "0.016667"
    },
    {
        "pts_time": "2.200000",
        "duration_time": "0.016667"
    },
    {
        "pts_time": "2.216667",
        "duration_time": "0.016667"
    },
    {
        "pts_time": "2.233333",
        "duration_time": "0.016667"
    },
    {
        "pts_time": "2.250000",
        "duration_time": "0.016667"
    },
    {
        "pts_time": "2.266667",
        "duration_time": "0.016667"
    },
    {
        "pts_time": "2.283333",
        "duration_time": "0.016667"
    },
    {
        "pts_time": "2.300000",
        "duration_time": "0.016667"
    },
    {
        "pts_time": "2.316667",
        "duration_time": "0.016667"
    },
    {
        "pts_time": "2.333333",
        "duration_time": "0.016667"
    },
    {
        "pts_time": "2.350000",
        "duration_time": "0.016667"
    },
    {
        "pts_time": "2.366667",
        "duration_time": "0.016667"
    },
    {
        "pts_time": "2.383333",
        "duration_time": "0.016667"
    },
    {
        "pts_time": "2.400000",
        "duration_time": "0.016667"
    },
    {
        "pts_time": "2.416667",
        "duration_time": "0.016667"
    },
    {
        "pts_time": "2.433333",
        "duration_time": "0.016667"
    },
    {
        "pts_time": "2.450000",
        "duration_time": "0.016667"
    },
    {
        "pts_time": "2.466667",
        "duration_time": "0.016667"
    },
    {
        "pts_time": "2.483333",
        "duration_time": "0.016667"
    },
    {
        "pts_time": "2.500000",
        "duration_time": "0.016667"
    },
    {
        "pts_time": "2.516667",
        "duration_time": "0.016667"
    },
    {
        "pts_time": "2.533333",
        "duration_time": "0.016667"
    },
    {
        "pts_time": "2.550000",
        "duration_time": "0.016667"
    },
    {
        "pts_time": "2.566667",
        "duration_time": "0.016667"
    },
    {
        "pts_time": "2.583333",
        "duration_time": "0.016667"
    },
    {
        "pts_time": "2.600000",
        "duration_time": "0.016667"
    },
    {
        "pts_time": "2.616667",
        "duration_time": "0.016667"
    },
    {
        "pts_time": "2.633333",
        "duration_time": "0.016667"
    },
    {
        "pts_time": "2.650000",
        "duration_time": "0.016667"
    },
    {
        "pts_time": "2.666667",
        "duration_time": "0.016667"
    },
    {
        "pts_time": "2.683333",
        "duration_time": "0.016667"
    },
    {
        "pts_time": "2.700000",
        "duration_time": "0.016667"
    },
    {
        "pts_time": "2.716667",
        "duration_time": "0.016667"
    },
    {
        "pts_time": "2.733333",
        "duration_time": "0.016667"
    },
    {
        "pts_time": "2.750000",
        "duration_time": "0.016667"
    },
    {
        "pts_time": "2.766667",
        "duration_time": "0.016667"
    },
    {
        "pts_time": "2.783333",
        "duration_time": "0.016667"
    },
    {
        "pts_time": "2.800000",
        "duration_time": "0.016667"
    },
    {
        "pts_time": "2.816667",
        "duration_time": "0.016667"
    },
    {
        "pts_time": "2.833333",
        "duration_time": "0.016667"
    },
    {
        "pts_time": "2.850000",
        "duration_time": "0.016667"
    },
    {
        "pts_time": "2.866667",
        "duration_time": "0.016667"
    },
    {
        "pts_time": "2.883333",
        "duration_time": "0.016667"
    },
    {
        "pts_time": "2.900000",
        "duration_time": "0.016667"
    },
    {
        "pts_time": "2.916667",
        "duration_time": "0.016667"
    },
    {
        "pts_time": "2.933333",
        "duration_time": "0.016667"
    },
    {
        "pts_time": "2.950000",
        "duration_time": "0.016667"
    },
    {
        "pts_time": "2.966667",
        "duration_time": "0.016667"
    },
    {
        "pts_time": "2.983333",
        "duration_time": "0.016667"
    },
    {
        "pts_time": "3.000000",
        "duration_time": "0.016667"
    },
    {
        "pts_time": "3.016667",
        "duration_time": "0.016667"
    },
    {
        "pts_time": "3.033333",
        "duration_time": "0.016667"
    },
    {
        "pts_time": "3.050000",
        "duration_time": "0.016667"
    },
    {
        "pts_time": "3.066667",
        "duration_time": "0.016667"
    },
    {
        "pts_time": "3.083333",
        "duration_time": "0.016667"
    },
    {
        "pts_time": "3.100000",
        "duration_time": "0.016667"
    },
    {
        "pts_time": "3.116667",
        "duration_time": "0.016667"
    },
    {
        "pts_time": "3.133333",
        "duration_time": "0.016667"
    },
    {
        "pts_time": "3.150000",
        "duration_time": "0.016667"
    },
    {
        "pts_time": "3.166667",
        "duration_time": "0.016667"
    },
    {
        "pts_time": "3.183333",
        "duration_time": "0.016667"
    },
    {
        "pts_time": "3.200000",
        "duration_time": "0.016667"
    },
    {
        "pts_time": "3.216667",
        "duration_time": "0.016667"
    },
    {
        "pts_time": "3.233333",
        "duration_time": "0.016667"
    },
    {
        "pts_time": "3.250000",
        "duration_time": "0.016667"
    },
    {
        "pts_time": "3.266667",
        "duration_time": "0.016667"
    },
    {
        "pts_time": "3.283333",
        "duration_time": "0.016667"
    },
    {
        "pts_time": "3.300000",
        "duration_time": "0.016667"
    },
    {
        "pts_time": "3.316667",
        "duration_time": "0.016667"
    },
    {
        "pts_time": "3.333333",
        "duration_time": "0.016667"
    },
    {
        "pts_time": "3.350000",
        "duration_time": "0.016667"
    },
    {
        "pts_time": "3.366667",
        "duration_time": "0.016667"
    },
    {
        "pts_time": "3.383333",
        "duration_time": "0.016667"
    },
    {
        "pts_time": "3.400000",
        "duration_time": "0.016667"
    },
    {
        "pts_time": "3.416667",
        "duration_time": "0.016667"
    },
    {
        "pts_time": "3.433333",
        "duration_time": "0.016667"
    },
    {
        "pts_time": "3.450000",
        "duration_time": "0.016667"
    },
    {
        "pts_time": "3.466667",
        "duration_time": "0.016667"
    },
    {
        "pts_time": "3.483333",
        "duration_time": "0.016667"
    },
    {
        "pts_time": "3.500000",
        "duration_time": "0.016667"
    },
    {
        "pts_time": "3.516667",
        "duration_time": "0.016667"
    },
    {
        "pts_time": "3.533333",
        "duration_time": "0.016667"
    },
    {
        "pts_time": "3.550000",
        "duration_time": "0.016667"
    },
    {
        "pts_time": "3.566667",
        "duration_time": "0.016667"
    },
    {
        "pts_time": "3.583333",
        "duration_time": "0.016667"
    },
    {
        "pts_time": "3.600000",
        "duration_time": "0.016667"
    },
    {
        "pts_time": "3.616667",
        "duration_time": "0.016667"
    },
    {
        "pts_time": "3.633333",
        "duration_time": "0.016667"
    },
    {
        "pts_time": "3.650000",
        "duration_time": "0.016667"
    },
    {
        "pts_time": "3.666667",
        "duration_time": "0.016667"
    },
    {
        "pts_time": "3.683333",
        "duration_time": "0.016667"
    },
    {
        "pts_time": "3.700000",
        "duration_time": "0.016667"
    },
    {
        "pts_time": "3.716667",
        "duration_time": "0.016667"
    },
    {
        "pts_time": "3.733333",
        "duration_time": "0.016667"
    },
    {
        "pts_time": "3.750000",
        "duration_time": "0.016667"
    },
    {
        "pts_time": "3.766667",
        "duration_time": "0.016667"
    },
    {
        "pts_time": "3.783333",
        "duration_time": "0.016667"
    },
    {
        "pts_time": "3.800000",
        "duration_time": "0.016667"
    },
    {
        "pts_time": "3.816667",
        "duration_time": "0.016667"
    },
    {
        "pts_time": "3.833333",
        "duration_time": "0.016667"
    },
    {
        "pts_time": "3.850000",
        "duration_time": "0.016667"
    },
    {
        "pts_time": "3.866667",
        "duration_time": "0.016667"
    },
    {
        "pts_time": "3.883333",
        "duration_time": "0.016667"
    },
    {
        "pts_time": "3.900000",
        "duration_time": "0.016667"
    },
    {
        "pts_time": "3.916667",
        "duration_time": "0.016667"
    },
    {
        "pts_time": "3.933333",
        "duration_time": "0.016667"
    },
    {
        "pts_time": "3.950000",
        "duration_time": "0.016667"
    },
    {
        "pts_time": "3.966667",
        "duration_time": "0.016667"
    },
    {
        "pts_time": "3.983333",
        "duration_time": "0.016667"
    },
    {
        "pts_time": "4.000000",
        "duration_time": "0.016667"
    },
    {
        "pts_time": "4.016667",
        "duration_time": "0.016667"
    },
    {
        "pts_time": "4.033333",
        "duration_time": "0.016667"
    },
    {
        "pts_time": "4.050000",
        "duration_time": "0.016667"
    },
    {
        "pts_time": "4.066667",
        "duration_time": "0.016667"
    },
    {
        "pts_time": "4.083333",
        "duration_time": "0.016667"
    },
    {
        "pts_time": "4.100000",
        "duration_time": "0.016667"
    },
    {
        "pts_time": "4.116667",
        "duration_time": "0.016667"
    },
    {
        "pts_time": "4.133333",
        "duration_time": "0.016667"
    },
    {
        "pts_time": "4.150000",
        "duration_time": "0.016667"
    },
    {
        "pts_time": "4.166667",
        "duration_time": "0.016667"
    },
    {
        "pts_time": "4.183333",
        "duration_time": "0.016667"
    },
    {
        "pts_time": "4.200000",
        "duration_time": "0.016667"
    },
    {
        "pts_time": "4.216667",
        "duration_time": "0.016667"
    },
    {
        "pts_time": "4.233333",
        "duration_time": "0.016667"
    },
    {
        "pts_time": "4.250000",
        "duration_time": "0.016667"
    },
    {
        "pts_time": "4.266667",
        "duration_time": "0.016667"
    },
    {
        "pts_time": "4.283333",
        "duration_time": "0.016667"
    },
    {
        "pts_time": "4.300000",
        "duration_time": "0.016667"
    },
    {
        "pts_time": "4.316667",
        "duration_time": "0.016667"
    },
    {
        "pts_time": "4.333333",
        "duration_time": "0.016667"
    },
    {
        "pts_time": "4.350000",
        "duration_time": "0.016667"
    },
    {
        "pts_time": "4.366667",
        "duration_time": "0.016667"
    },
    {
        "pts_time": "4.383333",
        "duration_time": "0.016667"
    },
    {
        "pts_time": "4.400000",
        "duration_time": "0.016667"
    },
    {
        "pts_time": "4.416667",
        "duration_time": "0.016667"
    },
    {
        "pts_time": "4.433333",
        "duration_time": "0.016667"
    },
    {
        "pts_time": "4.450000",
        "duration_time": "0.016667"
    },
    {
        "pts_time": "4.466667",
        "duration_time": "0.016667"
    },
    {
        "pts_time": "4.483333",
        "duration_time": "0.016667"
    },
    {
        "pts_time": "4.500000",
        "duration_time": "0.016667"
    },
    {
        "pts_time": "4.516667",
        "duration_time": "0.016667"
    },
    {
        "pts_time": "4.533333",
        "duration_time": "0.016667"
    },
    {
        "pts_time": "4.550000",
        "duration_time": "0.016667"
    },
    {
        "pts_time": "4.566667",
        "duration_time": "0.016667"
    },
    {
        "pts_time": "4.583333",
        "duration_time": "0.016667"
    },
    {
        "pts_time": "4.600000",
        "duration_time": "0.016667"
    },
    {
        "pts_time": "4.616667",
        "duration_time": "0.016667"
    },
    {
        "pts_time": "4.633333",
        "duration_time": "0.016667"
    },
    {
        "pts_time": "4.650000",
        "duration_time": "0.016667"
    },
    {
        "pts_time": "4.666667",
        "duration_time": "0.016667"
    },
    {
        "pts_time": "4.683333",
        "duration_time": "0.016667"
    },
    {
        "pts_time": "4.700000",
        "duration_time": "0.016667"
    },
    {
        "pts_time": "4.716667",
        "duration_time": "0.016667"
    },
    {
        "pts_time": "4.733333",
        "duration_time": "0.016667"
    },
    {
        "pts_time": "4.750000",
        "duration_time": "0.016667"
    },
    {
        "pts_time": "4.766667",
        "duration_time": "0.016667"
    },
    {
        "pts_time": "4.783333",
        "duration_time": "0.016667"
    },
    {
        "pts_time": "4.800000",
        "duration_time": "0.016667"
    },
    {
        "pts_time": "4.816667",
        "duration_time": "0.016667"
    },
    {
        "pts_time": "4.833333",
        "duration_time": "0.016667"
    },
    {
        "pts_time": "4.850000",
        "duration_time": "0.016667"
    },
    {
        "pts_time": "4.866667",
        "duration_time": "0.016667"
    },
    {
        "pts_time": "4.883333",
        "duration_time": "0.016667"
    },
    {
        "pts_time": "4.900000",
        "duration_time": "0.016667"
    },
    {
        "pts_time": "4.916667",
        "duration_time": "0.016667"
    },
    {
        "pts_time": "4.933333",
        "duration_time": "0.016667"
    },
    {
        "pts_time": "4.950000",
        "duration_time": "0.016667"
    },
    {
        "pts_time": "4.966667",
        "duration_time": "0.016667"
    },
    {
        "pts_time": "4.983333",
        "duration_time": "0.016667"
    }
]
